<svg width="167" height="23" viewBox="0 0 167 23" fill="none" xmlns="http://www.w3.org/2000/svg">
<path d="M17.2784 0.90909V22H14.8068L3.31392 5.44034H3.10795V22H0.553977V0.90909H3.02557L14.5597 17.5099H14.7656V0.90909H17.2784ZM40.1844 11.4545C40.1844 13.679 39.7828 15.6013 38.9795 17.2216C38.1762 18.8419 37.0743 20.0914 35.6737 20.9702C34.2732 21.849 32.6735 22.2884 30.8747 22.2884C29.076 22.2884 27.4763 21.849 26.0757 20.9702C24.6752 20.0914 23.5732 18.8419 22.77 17.2216C21.9667 15.6013 21.5651 13.679 21.5651 11.4545C21.5651 9.23011 21.9667 7.30777 22.77 5.6875C23.5732 4.06723 24.6752 2.81771 26.0757 1.93892C27.4763 1.06013 29.076 0.620738 30.8747 0.620738C32.6735 0.620738 34.2732 1.06013 35.6737 1.93892C37.0743 2.81771 38.1762 4.06723 38.9795 5.6875C39.7828 7.30777 40.1844 9.23011 40.1844 11.4545ZM37.7128 11.4545C37.7128 9.62831 37.4073 8.087 36.7963 6.83061C36.1921 5.57422 35.3717 4.62334 34.335 3.97798C33.3051 3.33262 32.1517 3.00994 30.8747 3.00994C29.5977 3.00994 28.4409 3.33262 27.4042 3.97798C26.3744 4.62334 25.5539 5.57422 24.9429 6.83061C24.3387 8.087 24.0367 9.62831 24.0367 11.4545C24.0367 13.2808 24.3387 14.8221 24.9429 16.0785C25.5539 17.3349 26.3744 18.2857 27.4042 18.9311C28.4409 19.5765 29.5977 19.8991 30.8747 19.8991C32.1517 19.8991 33.3051 19.5765 34.335 18.9311C35.3717 18.2857 36.1921 17.3349 36.7963 16.0785C37.4073 14.8221 37.7128 13.2808 37.7128 11.4545ZM44.4788 22V0.90909H51.6052C53.2529 0.90909 54.6054 1.19058 55.6627 1.75355C56.72 2.30966 57.5027 3.07516 58.0107 4.05007C58.5188 5.02498 58.7728 6.13376 58.7728 7.37642C58.7728 8.61908 58.5188 9.721 58.0107 10.6822C57.5027 11.6433 56.7235 12.3986 55.673 12.9478C54.6226 13.4902 53.2804 13.7614 51.6464 13.7614H45.8794V11.4545H51.564C52.69 11.4545 53.5962 11.2898 54.2828 10.9602C54.9762 10.6307 55.4774 10.1638 55.7863 9.55966C56.1021 8.94863 56.26 8.22088 56.26 7.37642C56.26 6.53196 56.1021 5.79391 55.7863 5.16229C55.4705 4.53066 54.9659 4.04321 54.2725 3.69993C53.579 3.34979 52.6625 3.17472 51.5228 3.17472H47.0328V22H44.4788ZM54.4063 12.5256L59.5967 22H56.6308L51.5228 12.5256H54.4063ZM79.753 0.90909V22H77.2814L65.7885 5.44034H65.5826V22H63.0286V0.90909H65.5002L77.0343 17.5099H77.2402V0.90909H79.753ZM84.8635 22V0.90909H87.4175V19.7344H97.2215V22H84.8635ZM103.73 0.90909V22H101.176V0.90909H103.73ZM123.268 7.5C123.042 6.80658 122.743 6.18525 122.373 5.63601C122.009 5.0799 121.573 4.60618 121.065 4.21484C120.563 3.82351 119.994 3.52486 119.355 3.31889C118.717 3.11293 118.016 3.00994 117.254 3.00994C116.005 3.00994 114.868 3.33262 113.846 3.97798C112.823 4.62334 112.009 5.57422 111.405 6.83061C110.801 8.087 110.499 9.62831 110.499 11.4545C110.499 13.2808 110.804 14.8221 111.415 16.0785C112.026 17.3349 112.853 18.2857 113.897 18.9311C114.941 19.5765 116.115 19.8991 117.419 19.8991C118.627 19.8991 119.692 19.6417 120.612 19.1268C121.538 18.605 122.259 17.8704 122.774 16.9229C123.296 15.9686 123.557 14.8461 123.557 13.5554L124.339 13.7202H117.996V11.4545H126.028V13.7202C126.028 15.4571 125.658 16.9676 124.916 18.2514C124.182 19.5353 123.165 20.5308 121.868 21.2379C120.577 21.9382 119.094 22.2884 117.419 22.2884C115.552 22.2884 113.911 21.849 112.496 20.9702C111.089 20.0914 109.991 18.8419 109.201 17.2216C108.418 15.6013 108.027 13.679 108.027 11.4545C108.027 9.78622 108.25 8.2861 108.696 6.95419C109.15 5.61541 109.788 4.47573 110.612 3.53516C111.436 2.59458 112.411 1.8737 113.537 1.37251C114.663 0.87133 115.902 0.620738 117.254 0.620738C118.366 0.620738 119.403 0.788943 120.364 1.12535C121.332 1.4549 122.194 1.92519 122.949 2.53622C123.711 3.14039 124.346 3.8647 124.854 4.70916C125.362 5.54676 125.713 6.47704 125.905 7.5H123.268ZM130.403 22V0.90909H132.957V10.3011H144.202V0.90909H146.756V22H144.202V12.5668H132.957V22H130.403ZM150.716 3.17472V0.90909H166.534V3.17472H159.902V22H157.348V3.17472H150.716Z" fill="#454545"/>
</svg>
